ISO-10303-21;
HEADER;
FILE_DESCRIPTION(('XIAO_ESP32C6_box'),'2;1');
FILE_NAME('XIAO_ESP32C6_box.step','',(''),(''),'hue footprints.py','','');
FILE_SCHEMA(('AUTOMOTIVE_DESIGN { 1 0 10303 214 1 1 1 1 }'));
ENDSEC;
DATA;
#1=CARTESIAN_POINT('',(0,0,0));
#2=VERTEX_POINT('',#1);
#3=CARTESIAN_POINT('',(17.78,0,0));
#4=VERTEX_POINT('',#3);
#5=CARTESIAN_POINT('',(17.78,21.04,0));
#6=VERTEX_POINT('',#5);
#7=CARTESIAN_POINT('',(0,21.04,0));
#8=VERTEX_POINT('',#7);
#9=CARTESIAN_POINT('',(0,0,1));
#10=VERTEX_POINT('',#9);
#11=CARTESIAN_POINT('',(17.78,0,1));
#12=VERTEX_POINT('',#11);
#13=CARTESIAN_POINT('',(17.78,21.04,1));
#14=VERTEX_POINT('',#13);
#15=CARTESIAN_POINT('',(0,21.04,1));
#16=VERTEX_POINT('',#15);
#17=CARTESIAN_POINT('',(0,0,0));
#18=DIRECTION('',(0,1,0));
#19=VECTOR('',#18,1.);
#20=LINE('',#17,#19);
#21=EDGE_CURVE('',#2,#8,#20,.T.);
#22=ORIENTED_EDGE('',*,*,#21,.T.);
#23=CARTESIAN_POINT('',(0,21.04,0));
#24=DIRECTION('',(1,0,0));
#25=VECTOR('',#24,1.);
#26=LINE('',#23,#25);
#27=EDGE_CURVE('',#8,#6,#26,.T.);
#28=ORIENTED_EDGE('',*,*,#27,.T.);
#29=CARTESIAN_POINT('',(17.78,21.04,0));
#30=DIRECTION('',(0,-1,0));
#31=VECTOR('',#30,1.);
#32=LINE('',#29,#31);
#33=EDGE_CURVE('',#6,#4,#32,.T.);
#34=ORIENTED_EDGE('',*,*,#33,.T.);
#35=CARTESIAN_POINT('',(17.78,0,0));
#36=DIRECTION('',(-1,0,0));
#37=VECTOR('',#36,1.);
#38=LINE('',#35,#37);
#39=EDGE_CURVE('',#4,#2,#38,.T.);
#40=ORIENTED_EDGE('',*,*,#39,.T.);
#41=EDGE_LOOP('',(#22,#28,#34,#40));
#42=FACE_OUTER_BOUND('',#41,.T.);
#43=CARTESIAN_POINT('',(0,0,0));
#44=DIRECTION('',(0,0,-1));
#45=DIRECTION('',(1,0,0));
#46=AXIS2_PLACEMENT_3D('',#43,#44,#45);
#47=PLANE('',#46);
#48=ADVANCED_FACE('',(#42),#47,.T.);
#49=CARTESIAN_POINT('',(0,0,1));
#50=DIRECTION('',(1,0,0));
#51=VECTOR('',#50,1.);
#52=LINE('',#49,#51);
#53=EDGE_CURVE('',#10,#12,#52,.T.);
#54=ORIENTED_EDGE('',*,*,#53,.T.);
#55=CARTESIAN_POINT('',(17.78,0,1));
#56=DIRECTION('',(0,1,0));
#57=VECTOR('',#56,1.);
#58=LINE('',#55,#57);
#59=EDGE_CURVE('',#12,#14,#58,.T.);
#60=ORIENTED_EDGE('',*,*,#59,.T.);
#61=CARTESIAN_POINT('',(17.78,21.04,1));
#62=DIRECTION('',(-1,0,0));
#63=VECTOR('',#62,1.);
#64=LINE('',#61,#63);
#65=EDGE_CURVE('',#14,#16,#64,.T.);
#66=ORIENTED_EDGE('',*,*,#65,.T.);
#67=CARTESIAN_POINT('',(0,21.04,1));
#68=DIRECTION('',(0,-1,0));
#69=VECTOR('',#68,1.);
#70=LINE('',#67,#69);
#71=EDGE_CURVE('',#16,#10,#70,.T.);
#72=ORIENTED_EDGE('',*,*,#71,.T.);
#73=EDGE_LOOP('',(#54,#60,#66,#72));
#74=FACE_OUTER_BOUND('',#73,.T.);
#75=CARTESIAN_POINT('',(0,0,1));
#76=DIRECTION('',(0,0,1));
#77=DIRECTION('',(1,0,0));
#78=AXIS2_PLACEMENT_3D('',#75,#76,#77);
#79=PLANE('',#78);
#80=ADVANCED_FACE('',(#74),#79,.T.);
#81=ORIENTED_EDGE('',*,*,#39,.F.);
#82=CARTESIAN_POINT('',(17.78,0,0));
#83=DIRECTION('',(0,0,1));
#84=VECTOR('',#83,1.);
#85=LINE('',#82,#84);
#86=EDGE_CURVE('',#4,#12,#85,.T.);
#87=ORIENTED_EDGE('',*,*,#86,.T.);
#88=ORIENTED_EDGE('',*,*,#53,.F.);
#89=CARTESIAN_POINT('',(0,0,1));
#90=DIRECTION('',(0,0,-1));
#91=VECTOR('',#90,1.);
#92=LINE('',#89,#91);
#93=EDGE_CURVE('',#10,#2,#92,.T.);
#94=ORIENTED_EDGE('',*,*,#93,.T.);
#95=EDGE_LOOP('',(#81,#87,#88,#94));
#96=FACE_OUTER_BOUND('',#95,.T.);
#97=CARTESIAN_POINT('',(0,0,0));
#98=DIRECTION('',(0,-1,0));
#99=DIRECTION('',(1,0,0));
#100=AXIS2_PLACEMENT_3D('',#97,#98,#99);
#101=PLANE('',#100);
#102=ADVANCED_FACE('',(#96),#101,.T.);
#103=ORIENTED_EDGE('',*,*,#33,.F.);
#104=CARTESIAN_POINT('',(17.78,21.04,0));
#105=DIRECTION('',(0,0,1));
#106=VECTOR('',#105,1.);
#107=LINE('',#104,#106);
#108=EDGE_CURVE('',#6,#14,#107,.T.);
#109=ORIENTED_EDGE('',*,*,#108,.T.);
#110=ORIENTED_EDGE('',*,*,#59,.F.);
#111=ORIENTED_EDGE('',*,*,#86,.F.);
#112=EDGE_LOOP('',(#103,#109,#110,#111));
#113=FACE_OUTER_BOUND('',#112,.T.);
#114=CARTESIAN_POINT('',(17.78,0,0));
#115=DIRECTION('',(1,0,0));
#116=DIRECTION('',(0,1,0));
#117=AXIS2_PLACEMENT_3D('',#114,#115,#116);
#118=PLANE('',#117);
#119=ADVANCED_FACE('',(#113),#118,.T.);
#120=ORIENTED_EDGE('',*,*,#27,.F.);
#121=CARTESIAN_POINT('',(0,21.04,0));
#122=DIRECTION('',(0,0,1));
#123=VECTOR('',#122,1.);
#124=LINE('',#121,#123);
#125=EDGE_CURVE('',#8,#16,#124,.T.);
#126=ORIENTED_EDGE('',*,*,#125,.T.);
#127=ORIENTED_EDGE('',*,*,#65,.F.);
#128=ORIENTED_EDGE('',*,*,#108,.F.);
#129=EDGE_LOOP('',(#120,#126,#127,#128));
#130=FACE_OUTER_BOUND('',#129,.T.);
#131=CARTESIAN_POINT('',(17.78,21.04,0));
#132=DIRECTION('',(0,1,0));
#133=DIRECTION('',(1,0,0));
#134=AXIS2_PLACEMENT_3D('',#131,#132,#133);
#135=PLANE('',#134);
#136=ADVANCED_FACE('',(#130),#135,.T.);
#137=ORIENTED_EDGE('',*,*,#21,.F.);
#138=ORIENTED_EDGE('',*,*,#93,.F.);
#139=ORIENTED_EDGE('',*,*,#71,.F.);
#140=ORIENTED_EDGE('',*,*,#125,.F.);
#141=EDGE_LOOP('',(#137,#138,#139,#140));
#142=FACE_OUTER_BOUND('',#141,.T.);
#143=CARTESIAN_POINT('',(0,21.04,0));
#144=DIRECTION('',(-1,0,0));
#145=DIRECTION('',(0,1,0));
#146=AXIS2_PLACEMENT_3D('',#143,#144,#145);
#147=PLANE('',#146);
#148=ADVANCED_FACE('',(#142),#147,.T.);
#149=CLOSED_SHELL('',(#48,#80,#102,#119,#136,#148));
#150=MANIFOLD_SOLID_BREP('XIAO_ESP32C6_box',#149);
#151=CARTESIAN_POINT('',(4.42,14.99,1));
#152=VERTEX_POINT('',#151);
#153=CARTESIAN_POINT('',(13.36,14.99,1));
#154=VERTEX_POINT('',#153);
#155=CARTESIAN_POINT('',(13.36,22.34,1));
#156=VERTEX_POINT('',#155);
#157=CARTESIAN_POINT('',(4.42,22.34,1));
#158=VERTEX_POINT('',#157);
#159=CARTESIAN_POINT('',(4.42,14.99,4.3));
#160=VERTEX_POINT('',#159);
#161=CARTESIAN_POINT('',(13.36,14.99,4.3));
#162=VERTEX_POINT('',#161);
#163=CARTESIAN_POINT('',(13.36,22.34,4.3));
#164=VERTEX_POINT('',#163);
#165=CARTESIAN_POINT('',(4.42,22.34,4.3));
#166=VERTEX_POINT('',#165);
#167=CARTESIAN_POINT('',(4.42,14.99,1));
#168=DIRECTION('',(0,1,0));
#169=VECTOR('',#168,1.);
#170=LINE('',#167,#169);
#171=EDGE_CURVE('',#152,#158,#170,.T.);
#172=ORIENTED_EDGE('',*,*,#171,.T.);
#173=CARTESIAN_POINT('',(4.42,22.34,1));
#174=DIRECTION('',(1,0,0));
#175=VECTOR('',#174,1.);
#176=LINE('',#173,#175);
#177=EDGE_CURVE('',#158,#156,#176,.T.);
#178=ORIENTED_EDGE('',*,*,#177,.T.);
#179=CARTESIAN_POINT('',(13.36,22.34,1));
#180=DIRECTION('',(0,-1,0));
#181=VECTOR('',#180,1.);
#182=LINE('',#179,#181);
#183=EDGE_CURVE('',#156,#154,#182,.T.);
#184=ORIENTED_EDGE('',*,*,#183,.T.);
#185=CARTESIAN_POINT('',(13.36,14.99,1));
#186=DIRECTION('',(-1,0,0));
#187=VECTOR('',#186,1.);
#188=LINE('',#185,#187);
#189=EDGE_CURVE('',#154,#152,#188,.T.);
#190=ORIENTED_EDGE('',*,*,#189,.T.);
#191=EDGE_LOOP('',(#172,#178,#184,#190));
#192=FACE_OUTER_BOUND('',#191,.T.);
#193=CARTESIAN_POINT('',(4.42,14.99,1));
#194=DIRECTION('',(0,0,-1));
#195=DIRECTION('',(1,0,0));
#196=AXIS2_PLACEMENT_3D('',#193,#194,#195);
#197=PLANE('',#196);
#198=ADVANCED_FACE('',(#192),#197,.T.);
#199=CARTESIAN_POINT('',(4.42,14.99,4.3));
#200=DIRECTION('',(1,0,0));
#201=VECTOR('',#200,1.);
#202=LINE('',#199,#201);
#203=EDGE_CURVE('',#160,#162,#202,.T.);
#204=ORIENTED_EDGE('',*,*,#203,.T.);
#205=CARTESIAN_POINT('',(13.36,14.99,4.3));
#206=DIRECTION('',(0,1,0));
#207=VECTOR('',#206,1.);
#208=LINE('',#205,#207);
#209=EDGE_CURVE('',#162,#164,#208,.T.);
#210=ORIENTED_EDGE('',*,*,#209,.T.);
#211=CARTESIAN_POINT('',(13.36,22.34,4.3));
#212=DIRECTION('',(-1,0,0));
#213=VECTOR('',#212,1.);
#214=LINE('',#211,#213);
#215=EDGE_CURVE('',#164,#166,#214,.T.);
#216=ORIENTED_EDGE('',*,*,#215,.T.);
#217=CARTESIAN_POINT('',(4.42,22.34,4.3));
#218=DIRECTION('',(0,-1,0));
#219=VECTOR('',#218,1.);
#220=LINE('',#217,#219);
#221=EDGE_CURVE('',#166,#160,#220,.T.);
#222=ORIENTED_EDGE('',*,*,#221,.T.);
#223=EDGE_LOOP('',(#204,#210,#216,#222));
#224=FACE_OUTER_BOUND('',#223,.T.);
#225=CARTESIAN_POINT('',(4.42,14.99,4.3));
#226=DIRECTION('',(0,0,1));
#227=DIRECTION('',(1,0,0));
#228=AXIS2_PLACEMENT_3D('',#225,#226,#227);
#229=PLANE('',#228);
#230=ADVANCED_FACE('',(#224),#229,.T.);
#231=ORIENTED_EDGE('',*,*,#189,.F.);
#232=CARTESIAN_POINT('',(13.36,14.99,1));
#233=DIRECTION('',(0,0,1));
#234=VECTOR('',#233,1.);
#235=LINE('',#232,#234);
#236=EDGE_CURVE('',#154,#162,#235,.T.);
#237=ORIENTED_EDGE('',*,*,#236,.T.);
#238=ORIENTED_EDGE('',*,*,#203,.F.);
#239=CARTESIAN_POINT('',(4.42,14.99,4.3));
#240=DIRECTION('',(0,0,-1));
#241=VECTOR('',#240,1.);
#242=LINE('',#239,#241);
#243=EDGE_CURVE('',#160,#152,#242,.T.);
#244=ORIENTED_EDGE('',*,*,#243,.T.);
#245=EDGE_LOOP('',(#231,#237,#238,#244));
#246=FACE_OUTER_BOUND('',#245,.T.);
#247=CARTESIAN_POINT('',(4.42,14.99,1));
#248=DIRECTION('',(0,-1,0));
#249=DIRECTION('',(1,0,0));
#250=AXIS2_PLACEMENT_3D('',#247,#248,#249);
#251=PLANE('',#250);
#252=ADVANCED_FACE('',(#246),#251,.T.);
#253=ORIENTED_EDGE('',*,*,#183,.F.);
#254=CARTESIAN_POINT('',(13.36,22.34,1));
#255=DIRECTION('',(0,0,1));
#256=VECTOR('',#255,1.);
#257=LINE('',#254,#256);
#258=EDGE_CURVE('',#156,#164,#257,.T.);
#259=ORIENTED_EDGE('',*,*,#258,.T.);
#260=ORIENTED_EDGE('',*,*,#209,.F.);
#261=ORIENTED_EDGE('',*,*,#236,.F.);
#262=EDGE_LOOP('',(#253,#259,#260,#261));
#263=FACE_OUTER_BOUND('',#262,.T.);
#264=CARTESIAN_POINT('',(13.36,14.99,1));
#265=DIRECTION('',(1,0,0));
#266=DIRECTION('',(0,1,0));
#267=AXIS2_PLACEMENT_3D('',#264,#265,#266);
#268=PLANE('',#267);
#269=ADVANCED_FACE('',(#263),#268,.T.);
#270=ORIENTED_EDGE('',*,*,#177,.F.);
#271=CARTESIAN_POINT('',(4.42,22.34,1));
#272=DIRECTION('',(0,0,1));
#273=VECTOR('',#272,1.);
#274=LINE('',#271,#273);
#275=EDGE_CURVE('',#158,#166,#274,.T.);
#276=ORIENTED_EDGE('',*,*,#275,.T.);
#277=ORIENTED_EDGE('',*,*,#215,.F.);
#278=ORIENTED_EDGE('',*,*,#258,.F.);
#279=EDGE_LOOP('',(#270,#276,#277,#278));
#280=FACE_OUTER_BOUND('',#279,.T.);
#281=CARTESIAN_POINT('',(13.36,22.34,1));
#282=DIRECTION('',(0,1,0));
#283=DIRECTION('',(1,0,0));
#284=AXIS2_PLACEMENT_3D('',#281,#282,#283);
#285=PLANE('',#284);
#286=ADVANCED_FACE('',(#280),#285,.T.);
#287=ORIENTED_EDGE('',*,*,#171,.F.);
#288=ORIENTED_EDGE('',*,*,#243,.F.);
#289=ORIENTED_EDGE('',*,*,#221,.F.);
#290=ORIENTED_EDGE('',*,*,#275,.F.);
#291=EDGE_LOOP('',(#287,#288,#289,#290));
#292=FACE_OUTER_BOUND('',#291,.T.);
#293=CARTESIAN_POINT('',(4.42,22.34,1));
#294=DIRECTION('',(-1,0,0));
#295=DIRECTION('',(0,1,0));
#296=AXIS2_PLACEMENT_3D('',#293,#294,#295);
#297=PLANE('',#296);
#298=ADVANCED_FACE('',(#292),#297,.T.);
#299=CLOSED_SHELL('',(#198,#230,#252,#269,#286,#298));
#300=MANIFOLD_SOLID_BREP('XIAO_ESP32C6_box',#299);
#301=CARTESIAN_POINT('',(0.,0.,0.));
#302=DIRECTION('',(0.,0.,1.));
#303=DIRECTION('',(1.,0.,0.));
#304=AXIS2_PLACEMENT_3D('',#301,#302,#303);
#305=( LENGTH_UNIT() NAMED_UNIT(*) SI_UNIT(.MILLI.,.METRE.) );
#306=( NAMED_UNIT(*) PLANE_ANGLE_UNIT() SI_UNIT($,.RADIAN.) );
#307=( NAMED_UNIT(*) SI_UNIT($,.STERADIAN.) SOLID_ANGLE_UNIT() );
#308=UNCERTAINTY_MEASURE_WITH_UNIT(LENGTH_MEASURE(1.E-07),#305,'distance_accuracy_value','');
#309=( GEOMETRIC_REPRESENTATION_CONTEXT(3) GLOBAL_UNCERTAINTY_ASSIGNED_CONTEXT((#308)) GLOBAL_UNIT_ASSIGNED_CONTEXT((#305,#306,#307)) REPRESENTATION_CONTEXT('','') );
#310=ADVANCED_BREP_SHAPE_REPRESENTATION('',(#150,#300,#304),#309);
#311=APPLICATION_CONTEXT('automotive_design');
#312=APPLICATION_PROTOCOL_DEFINITION('international standard','automotive_design',2000,#311);
#313=PRODUCT_CONTEXT('',#311,'mechanical');
#314=PRODUCT('XIAO_ESP32C6_box','XIAO_ESP32C6_box','',(#313));
#315=PRODUCT_DEFINITION_FORMATION('','',#314);
#316=PRODUCT_DEFINITION_CONTEXT('part definition',#311,'design');
#317=PRODUCT_DEFINITION('design','',#315,#316);
#318=PRODUCT_DEFINITION_SHAPE('','',#317);
#319=SHAPE_DEFINITION_REPRESENTATION(#318,#310);
ENDSEC;
END-ISO-10303-21;
